# xmcd
#
# Track frame offsets:
#	183
#	10598
#	29345
#	36805
#	45923
#	52758
#	65438
#	83943
#	100570
#	109683
#	117125
#	123248
#	128753
#	141260
#	152055
#	165943
#	174293
#	189083
#	205618
#	214190
#	228570
#	235695
#	242653
#	260273
#
# Disc length: 3638 seconds
#
# Revision: 6
# Processed by: cddbd v1.5.2PL0 Copyright (c) Steve Scherf et al.
# Submitted via: EZCDAudioConverter 1.3.4.1
#
DISCID=210e3418
DTITLE=Various Artist - Sound Gallery V1
DYEAR=1995
DGENRE=
TTITLE0=Dave Pell Singers - Oh Calcutta
TTITLE1=Mandingo - Black Rite
TTITLE2=Alan Parker - Punch Bowl
TTITLE3=Alan Hawkshaw - The Night Rider
TTITLE4=Neil Richardson - The Riviera Affair
TTITLE5=John Gregory - Jet Stream
TTITLE6=John Cameron - Half Forgotten Daydreams
TTITLE7=John Gregory - Jaguar
TTITLE8=Keith Mansfield - Life Of Leisure
TTITLE9=Alan Hawkshaw - Girl In A Sportscar
TTITLE10=Keith Mansfield - Young Scene
TTITLE11=Alan Hawkshaw - It's All At The Co-Op Now
TTITLE12=Alan Moorhouse and His Bond Street Brigade - Funky Fever
TTITLE13=Denny Wright and The Hustlers - Shout About Pepsi
TTITLE14=Mandingo - The Headhunter
TTITLE15=Alan Hawkshaw - Blarney's Stoned
TTITLE16=Paddy Kingsland - The Earthmen
TTITLE17=John Keating - I Feel The Earth Move
TTITLE18=Syd Dale - The Penthouse Suite
TTITLE19=Mandingo - The Snake Pit
TTITLE20=Brian Bennett - Boogie Juice
TTITLE21=Alan Tew - The Detectives
TTITLE22=Johnny Keating - Jesus Christ Superstar
TTITLE23=Joe Loss Concertium - Music To Drive By
EXTD=
EXTT0=
EXTT1=
EXTT2=
EXTT3=
EXTT4=
EXTT5=
EXTT6=
EXTT7=
EXTT8=
EXTT9=
EXTT10=
EXTT11=
EXTT12=
EXTT13=
EXTT14=
EXTT15=
EXTT16=
EXTT17=
EXTT18=
EXTT19=
EXTT20=
EXTT21=
EXTT22=
EXTT23=
PLAYORDER=
